<?xml version="1.0" encoding="UTF-8"?>
<svg version="1.1" xmlns="http://www.w3.org/2000/svg" width="512" height="512">
<path d="M0 0 C5.84756735 3.36591682 9.46546852 7.75142596 11.6188609 14.12813866 C12.61829278 18.22892429 12.84198333 22.0194912 12.81697559 26.20759392 C12.82178531 27.4110333 12.82178531 27.4110333 12.82669219 28.63878459 C12.83499065 31.32598444 12.82906843 34.01296131 12.82319641 36.70016479 C12.82621716 38.64669921 12.83010626 40.59323244 12.83478898 42.53976357 C12.84508754 47.88813586 12.84288241 53.23644125 12.83860838 58.58481908 C12.83614454 64.35316396 12.84515107 70.12149259 12.85264587 75.88983154 C12.86540437 87.19036475 12.86718513 98.49087421 12.86484561 109.79141341 C12.86306359 118.97547871 12.8648096 128.15953679 12.86907005 137.34360123 C12.86996284 139.30323658 12.86996284 139.30323658 12.87087366 141.30246053 C12.87208539 143.95634221 12.87329952 146.61022389 12.87451603 149.26410557 C12.88245939 167.0867655 12.88622127 184.90942289 12.88219929 202.73208427 C12.88204291 203.42900524 12.88188654 204.1259262 12.88172542 204.84396599 C12.88091964 208.3762098 12.88007387 211.90845361 12.87921212 215.44069742 C12.87904103 216.14220778 12.87886994 216.84371815 12.87869367 217.56648641 C12.87834702 218.98511058 12.87799849 220.40373475 12.87764808 221.82235892 C12.87229074 243.89672513 12.88022177 265.9710514 12.89868164 288.04541016 C12.91939907 312.8483924 12.93009376 337.65134967 12.92610615 362.45434105 C12.92419229 375.58621192 12.92669971 388.7180464 12.94082069 401.84991074 C12.95272007 413.02903364 12.95415558 424.20809775 12.94203053 435.38722144 C12.93613175 441.09157388 12.93507006 446.79581869 12.94703293 452.50016403 C12.95785736 457.72231822 12.95482932 462.94427449 12.94077124 468.16641928 C12.93811483 470.05532123 12.94052036 471.94423852 12.94850711 473.83312546 C13.03722653 496.38104998 13.03722653 496.38104998 5.265625 504.4921875 C-1.18013338 510.1987534 -7.36396532 510.64079402 -15.87109375 510.37890625 C-22.32717925 509.69299136 -26.26453054 507.48022713 -30.75 502.875 C-37.96804419 493.25886649 -36.86271464 481.43046232 -36.81845093 470.01499939 C-36.82191011 468.07412422 -36.82667642 466.13325103 -36.83263266 464.19238192 C-36.84513637 458.87355752 -36.83897508 453.55489496 -36.82967401 448.23607004 C-36.82288137 442.49435932 -36.83336579 436.75267627 -36.84161377 431.01097107 C-36.85495071 419.76898913 -36.85207359 408.52706728 -36.84337585 397.28508299 C-36.83659991 388.14876066 -36.8356822 379.01245518 -36.8389473 369.87613106 C-36.839407 368.57566468 -36.83986669 367.2751983 -36.84034032 365.93532385 C-36.8412995 363.29344077 -36.84227214 360.65155769 -36.8432581 358.00967462 C-36.85156797 333.94558625 -36.84295157 309.88152949 -36.82723031 285.81744626 C-36.81299228 263.8567142 -36.81426928 241.89603434 -36.82861328 219.93530273 C-36.84468172 195.25205402 -36.85098948 170.56883535 -36.84177649 145.88558203 C-36.84082084 143.25373908 -36.83987773 140.62189613 -36.8389473 137.99005318 C-36.83848447 136.69513764 -36.83802164 135.4002221 -36.83754479 134.06606669 C-36.83495432 124.94003788 -36.83932712 115.81402758 -36.84638596 106.68800163 C-36.85479843 95.56750367 -36.852526 84.44706923 -36.83654372 73.32657855 C-36.82865792 67.65258692 -36.82557481 61.97870124 -36.83549118 56.30471039 C-36.84443192 51.11042714 -36.83951529 45.91634802 -36.82355852 40.72208328 C-36.82020814 38.84336709 -36.82191057 36.96463364 -36.82918589 35.08592855 C-36.90710633 13.29235494 -36.90710633 13.29235494 -30.05859375 4.57421875 C-21.94280097 -3.3069005 -10.15427137 -4.48925681 0 0 Z " fill="#000000" transform="translate(190.4375,2)"/>
<path d="M0 0 C5.13638822 4.383351 9.34763746 9.11857206 10.03930658 16.0821802 C10.0412575 16.99834072 10.04320843 17.91450123 10.04521847 18.85842419 C10.05228406 19.9211647 10.05934965 20.9839052 10.06662935 22.07884997 C10.06421427 23.24031285 10.06179918 24.40177573 10.05931091 25.59843445 C10.06716593 27.45635902 10.06716593 27.45635902 10.07517964 29.35181743 C10.08759028 32.7873584 10.09102307 36.22269471 10.09058273 39.65824401 C10.09223161 43.36460417 10.10529953 47.07092712 10.11677551 50.77726746 C10.13961989 58.88068963 10.14754562 66.98408561 10.15260196 75.08753562 C10.15585985 80.14895057 10.16238293 85.21035792 10.16960335 90.27176857 C10.18916912 104.28984552 10.20557327 118.30791541 10.20847988 132.32600689 C10.20876124 133.67145078 10.20876124 133.67145078 10.20904827 135.04407536 C10.20941452 136.86238436 10.20977822 138.68069336 10.21013939 140.49900236 C10.2104136 141.85289097 10.2104136 141.85289097 10.21069336 143.23413086 C10.21087391 144.13782714 10.21105446 145.04152342 10.21124048 145.97260443 C10.21478132 160.61227939 10.24179819 175.25180718 10.27919125 189.89143112 C10.31728926 204.92759058 10.33663747 219.96367706 10.33693939 234.99988586 C10.33752365 243.43979839 10.34599526 251.87953539 10.37493706 260.31940269 C10.39947104 267.50687353 10.40672035 274.69410483 10.39168953 281.88160624 C10.38452857 285.54676243 10.38534205 289.21144582 10.40810013 292.87654877 C10.43257109 296.85574856 10.41803116 300.83427694 10.39988708 304.81352234 C10.41308705 305.96383161 10.42628702 307.11414088 10.43988699 308.299308 C10.3552366 316.43837883 8.77659725 323.5397772 2.84102434 329.46377963 C-3.18345072 334.49283146 -8.99999378 335.81344322 -16.71484375 335.3984375 C-24.02506079 334.49856293 -28.99384042 332.45553211 -33.58984375 326.5859375 C-36.86582747 321.98308887 -38.46339616 317.8578214 -38.47211266 312.18286419 C-38.47856155 311.11889028 -38.48501044 310.05491638 -38.49165475 308.95870084 C-38.48855755 307.79587372 -38.48546035 306.6330466 -38.48226929 305.4349823 C-38.4868004 304.19495478 -38.49133151 302.95492727 -38.49599993 301.67732316 C-38.50647345 298.2379171 -38.50796923 294.79872007 -38.50561118 291.35931289 C-38.50520307 287.64890473 -38.51624162 283.93852778 -38.52572632 280.22813416 C-38.54233862 272.95963103 -38.54783597 265.69116033 -38.54895107 258.42263981 C-38.54990145 252.51416497 -38.55401125 246.60570084 -38.56035233 240.69722939 C-38.57796548 223.94468136 -38.5871911 207.19215897 -38.58569138 190.43960162 C-38.58561147 189.53648377 -38.58553155 188.63336592 -38.58544922 187.70288086 C-38.58536746 186.79865996 -38.5852857 185.89443906 -38.58520146 184.96281753 C-38.58438857 170.30888027 -38.60352673 155.65504581 -38.63172595 141.00113829 C-38.66045393 125.95368891 -38.67426629 110.90628966 -38.6725384 95.85881215 C-38.67187446 87.41116801 -38.67736843 78.96363163 -38.6988945 70.51601219 C-38.71710519 63.32338229 -38.72145462 56.13090898 -38.70787565 48.938266 C-38.70134533 45.26937276 -38.70123076 41.60077995 -38.71858215 37.93191528 C-38.7372104 33.95208561 -38.72475986 29.97269466 -38.70932007 25.99284363 C-38.71960719 24.83670868 -38.72989432 23.68057372 -38.74049318 22.48940438 C-38.67364059 14.69905942 -37.46707912 9.45815481 -32.390625 3.31640625 C-22.88115369 -4.87728915 -10.88990252 -7.73697387 0 0 Z " fill="#000000" transform="translate(270.21484375,90.4765625)"/>
<path d="M0 0 C4.98623503 4.24430072 8.12652162 8.10320595 9.78515625 14.51953125 C10.08425438 18.56117669 10.06347884 22.59437803 10.05258179 26.64558411 C10.0571129 27.87759338 10.06164401 29.10960265 10.06631243 30.37894553 C10.0767745 33.79135915 10.07828369 37.20356181 10.07592368 40.61597645 C10.07551515 44.29911945 10.08655809 47.98223113 10.09603882 51.6653595 C10.11264188 58.87858151 10.11814805 66.09177083 10.11926357 73.30501036 C10.12021437 79.16911632 10.12432621 85.03321151 10.13066483 90.89731407 C10.14827524 107.52821326 10.15750399 124.15908665 10.15600388 140.78999523 C10.15592397 141.68631096 10.15584405 142.5826267 10.15576172 143.50610352 C10.15567996 144.40351537 10.1555982 145.30092723 10.15551396 146.22553339 C10.15470108 160.76880089 10.1738396 175.31196481 10.20203845 189.85520235 C10.23077363 204.79307707 10.2445784 219.73090129 10.2428509 234.66880435 C10.24218722 243.0533086 10.2476697 251.43770427 10.269207 259.82218361 C10.28742714 266.96096227 10.29175933 274.09958312 10.27818815 281.23837499 C10.27166268 284.8790462 10.27152571 288.51941473 10.28889465 292.16005707 C10.30754985 296.11102029 10.29505976 300.06154266 10.27963257 304.01252747 C10.28991969 305.15728556 10.30020682 306.30204365 10.31080568 307.48149139 C10.23991465 315.69933328 8.74989195 321.91377162 3.47265625 328.33203125 C-3.21041168 333.7717377 -8.54550926 335.80572661 -17.21484375 335.51953125 C-24.20168367 334.46184369 -29.59812155 331.9009863 -34.21484375 326.51953125 C-38.54441348 319.60438398 -38.78456349 312.9211996 -38.72277832 304.95005798 C-38.72901828 303.70661277 -38.73525825 302.46316755 -38.7416873 301.18204218 C-38.75483138 297.75143041 -38.7501699 294.3217013 -38.73774242 290.89114416 C-38.72866286 287.18351815 -38.74267594 283.47596724 -38.75366211 279.76835632 C-38.77142051 272.51372195 -38.7676195 265.2592534 -38.75601155 258.00461262 C-38.74696762 252.10766599 -38.74575737 246.21076574 -38.75010681 240.31381416 C-38.75071974 239.47363354 -38.75133268 238.63345291 -38.75196418 237.76781227 C-38.75324312 236.06086391 -38.75453997 234.35391557 -38.75585455 232.64696724 C-38.76725231 216.65261188 -38.7541589 200.65834833 -38.73265308 184.66400803 C-38.71477956 170.94645094 -38.71788984 157.22902926 -38.73632812 143.51147461 C-38.75774342 127.57170193 -38.76615719 111.63200962 -38.75387907 95.69222456 C-38.75260491 93.99196058 -38.75134742 92.29169658 -38.75010681 90.59143257 C-38.74948971 89.75492364 -38.74887261 88.9184147 -38.74823681 88.05655701 C-38.74478612 82.16763331 -38.7506061 76.27876069 -38.76002502 70.38984489 C-38.77125357 63.21193394 -38.76818691 56.03419792 -38.74690205 48.85630696 C-38.73640355 45.19549873 -38.73224909 41.53498197 -38.74549866 37.87417603 C-38.75965297 33.90329351 -38.74273029 29.93288626 -38.72277832 25.96202087 C-38.73170121 24.8086144 -38.74062409 23.65520793 -38.74981737 22.46684974 C-38.67025346 14.31037495 -37.25703024 9.13726653 -31.90234375 2.76953125 C-22.54134138 -5.06758702 -10.4549055 -7.44938852 0 0 Z " fill="#000000" transform="translate(425.21484375,90.48046875)"/>
<path d="M0 0 C4.94567292 3.89363284 8.86477765 8.36076876 10.78125 14.40234375 C11.07219716 17.34412989 11.05972353 20.27162676 11.04867554 23.22590637 C11.05320665 24.11474838 11.05773776 25.0035904 11.06240618 25.91936702 C11.07506689 28.8978763 11.07342872 31.87620311 11.07177734 34.85473633 C11.07776156 36.99025203 11.08456686 39.12576556 11.09213257 41.26127625 C11.10981093 47.06299673 11.11448874 52.86465824 11.11576414 58.66640306 C11.11766304 63.50981097 11.12502051 68.35320514 11.13210833 73.19660777 C11.14839698 84.62432437 11.15327686 96.05200945 11.15185547 107.47973633 C11.15065399 119.26709855 11.17175606 131.05427768 11.2033428 142.84159356 C11.22949692 152.96233889 11.24022312 163.08302438 11.23894465 173.20380324 C11.23843475 179.24814042 11.24413347 185.29231491 11.26530075 191.33661842 C11.28466833 197.02232608 11.2848175 202.70771563 11.27026749 208.39343452 C11.26817645 210.47834487 11.27289779 212.56327506 11.2849884 214.6481514 C11.30044497 217.49841752 11.29112979 220.34758737 11.27572632 223.1978302 C11.28601344 224.0193436 11.29630057 224.840857 11.30689943 225.68726474 C11.22702054 232.39385561 9.25562577 237.57870221 4.81640625 242.64453125 C4.16542969 243.18335938 3.51445313 243.7221875 2.84375 244.27734375 C2.19535156 244.83164062 1.54695313 245.3859375 0.87890625 245.95703125 C-5.61863526 250.43392205 -12.59370905 250.08453881 -20.21875 249.40234375 C-26.34147797 247.79211451 -30.94763044 243.7673658 -34.21875 238.40234375 C-36.80315387 232.4814014 -37.6555867 227.76715866 -37.61315918 221.34536743 C-37.62229584 220.02875218 -37.62229584 220.02875218 -37.63161707 218.68553865 C-37.64818439 215.76239322 -37.64348023 212.83968638 -37.63867188 209.91650391 C-37.64601582 207.81334483 -37.654603 205.71018978 -37.66433716 203.60704041 C-37.6865271 197.90657548 -37.6894851 192.20625522 -37.68758965 186.50575304 C-37.68746983 181.74190694 -37.69603839 176.97809137 -37.70436716 172.21425378 C-37.72359205 160.97289321 -37.72648831 149.73160689 -37.71972656 138.49023438 C-37.71308575 126.9044514 -37.73595411 115.31898679 -37.77304029 103.73326838 C-37.8037555 93.77547741 -37.81509535 83.81778876 -37.81120348 73.85995138 C-37.80913795 67.91728521 -37.81458544 61.97486683 -37.83909607 56.03224564 C-37.86139057 50.44245355 -37.85946244 44.85317851 -37.83916855 39.26338387 C-37.83576338 37.2164005 -37.84082624 35.16938213 -37.85515213 33.12244606 C-37.99340722 11.89724038 -37.99340722 11.89724038 -30.81148529 3.8195591 C-22.70181955 -3.66563848 -9.69702197 -5.7730152 0 0 Z " fill="#000000" transform="translate(114.21875,132.59765625)"/>
<path d="M0 0 C6.32639433 3.76823823 9.46921651 8.87725276 11.68619156 15.72287178 C12.86749581 20.62495907 12.74396128 25.52236013 12.71630859 30.54077148 C12.72156555 31.72571198 12.72682251 32.91065247 12.73223877 34.13150024 C12.74312131 37.35686921 12.74065309 40.58186409 12.73110151 43.8072269 C12.7234536 47.19913379 12.73056483 50.59101744 12.73526001 53.98292542 C12.74070348 59.67787089 12.73356392 65.37269929 12.71923828 71.06762695 C12.70292225 77.62910939 12.7081982 84.19031196 12.7247175 90.7517876 C12.73838213 96.40815368 12.74022761 102.06443606 12.73240149 107.72081333 C12.72775116 111.0890578 12.72702642 114.45717125 12.73701096 117.82540703 C12.74466644 121.58488498 12.73296262 125.3438328 12.71630859 129.10327148 C12.72238129 130.20332016 12.72845398 131.30336884 12.73471069 132.43675232 C12.65571462 142.10812885 11.22774219 150.56891353 4.3359375 157.69140625 C-1.45063612 162.57734585 -7.46079737 164.07806504 -14.9609375 163.7734375 C-21.86593529 162.78843061 -27.25768201 159.80987013 -31.671875 154.38671875 C-35.48568269 148.76296842 -36.79001557 143.87178095 -36.81231689 137.13848877 C-36.81802704 136.10126678 -36.82373718 135.0640448 -36.82962036 133.99539185 C-36.83073822 132.86801605 -36.83185608 131.74064026 -36.83300781 130.57910156 C-36.83797272 129.38338531 -36.84293762 128.18766907 -36.84805298 126.95571899 C-36.8601372 123.68278209 -36.86761345 120.40988085 -36.87206364 117.1369257 C-36.87500166 115.0886845 -36.87910785 113.0404488 -36.88356781 110.99221039 C-36.89723171 104.57376484 -36.90690357 98.15533199 -36.9107697 91.73687291 C-36.91524678 84.34628627 -36.93278291 76.95588491 -36.9617703 69.56535459 C-36.98344001 63.84031592 -36.99347681 58.11532918 -36.99481082 52.39024997 C-36.99585514 48.97667981 -37.00168285 45.56328409 -37.01963043 42.14975739 C-37.03672799 38.33700106 -37.03480121 34.52469342 -37.02832031 30.71191406 C-37.0375351 29.59263519 -37.04674988 28.47335632 -37.0562439 27.32015991 C-37.00542992 17.75344045 -35.40232269 10.1739657 -28.68359375 3.1171875 C-20.23109854 -4.15359964 -9.9217358 -4.44606086 0 0 Z " fill="#000000" transform="translate(345.671875,175.61328125)"/>
<path d="M0 0 C6.32489164 5.8862298 8.69181535 11.27410856 9.08972168 19.88294983 C9.17049287 23.83769458 9.15944171 27.78505392 9.09423828 31.73999023 C9.04693127 34.81275113 9.05315301 37.88204362 9.06640625 40.95507812 C9.05525303 42.93101002 9.04103345 44.90692748 9.0234375 46.8828125 C9.02617172 48.24255943 9.02617172 48.24255943 9.02896118 49.629776 C8.85837 57.39672135 6.93510018 64.06716581 1.296875 69.62890625 C-4.32692513 73.93369143 -10.67190535 75.62343203 -17.703125 75.19140625 C-25.19228623 74.07624901 -30.32846861 71.12743399 -35.25390625 65.42578125 C-39.1028165 59.11311428 -40.03817576 53.30474392 -40.01171875 46.07421875 C-40.0169606 45.22141327 -40.02220245 44.36860779 -40.02760315 43.48995972 C-40.03398902 41.69660524 -40.0327312 39.90320869 -40.02416992 38.10986328 C-40.01566841 35.39278147 -40.04445452 32.6778119 -40.07617188 29.9609375 C-40.12162531 19.03271276 -40.08191787 9.51659103 -31.953125 1.31640625 C-21.81059417 -6.62857623 -10.82824315 -6.08634472 0 0 Z " fill="#000000" transform="translate(503.578125,220.74609375)"/>
<path d="M0 0 C5.15436272 4.60503155 8.37301358 10.27106983 9.29045105 17.19067383 C9.40933369 19.525085 9.4421465 21.84227828 9.43359375 24.1796875 C9.4388356 25.03249298 9.44407745 25.88529846 9.44947815 26.76394653 C9.45586402 28.55730101 9.4546062 30.35069756 9.44604492 32.14404297 C9.43754341 34.86112478 9.46632952 37.57609435 9.49804688 40.29296875 C9.54350031 51.22119349 9.50379287 60.73731522 1.375 68.9375 C-4.48021583 73.52408573 -10.71405198 75.3807929 -18.125 74.9375 C-25.72461122 73.80589645 -30.82986358 70.80390383 -35.7734375 64.9765625 C-39.31804057 59.26455883 -39.34626955 53.42804794 -39.40625 46.921875 C-39.41765015 45.9552594 -39.42905029 44.9886438 -39.4407959 43.99273682 C-39.45963573 41.95207048 -39.4727399 39.91134413 -39.48046875 37.87060547 C-39.49985407 34.77331522 -39.56193344 31.67869786 -39.625 28.58203125 C-39.82220656 10.40344778 -39.82220656 10.40344778 -34.63525391 3.65380859 C-32.52992816 1.52459441 -30.59052922 -0.15399796 -27.9375 -1.5625 C-27.12152344 -2.01753906 -26.30554687 -2.47257813 -25.46484375 -2.94140625 C-17.05539585 -6.55307088 -7.4275536 -5.27116707 0 0 Z " fill="#000000" transform="translate(39,221)"/>
</svg>
