<?xml version="1.0" encoding="UTF-8"?>
<svg version="1.1" xmlns="http://www.w3.org/2000/svg" width="512" height="512">
<path d="M0 0 C0.84836426 0.28327148 1.69672852 0.56654297 2.57080078 0.85839844 C21.41689322 7.29087578 39.94467686 16.1340396 56 28 C57.04929687 28.76699219 58.09859375 29.53398438 59.1796875 30.32421875 C68.81164468 37.4864069 77.52768264 45.50061453 86 54 C86.75539063 54.72058594 87.51078125 55.44117187 88.2890625 56.18359375 C126.66045947 93.20750019 146.72408794 148.21635921 147.99609375 200.85546875 C148.38628844 244.57855717 136.84393128 290.19603871 111 326 C110.3198584 326.95543701 110.3198584 326.95543701 109.62597656 327.93017578 C101.58079873 339.17031568 92.77452096 349.22547904 83 359 C82.31421875 359.7321875 81.6284375 360.464375 80.921875 361.21875 C51.7914257 391.81620034 9.23322559 411.18198516 -32 418 C-33.22847656 418.21140625 -34.45695313 418.4228125 -35.72265625 418.640625 C-90.0237156 426.9128212 -147.89755266 413.75166528 -192.55078125 381.55859375 C-199.95136369 376.10670333 -206.90770088 370.2980468 -213.67578125 364.078125 C-215.2688195 362.65376139 -216.91083474 361.28287219 -218.58984375 359.9609375 C-220.74576933 358.2068457 -222.46569009 356.49274156 -224.25 354.375 C-226.13640753 352.15593566 -228.02619734 349.97228836 -230.02734375 347.85546875 C-267.33624215 308.25271403 -285.00950345 251.81347357 -283.97631836 198.1796875 C-283.22316562 177.33096792 -279.63241393 156.77159906 -273 137 C-272.71672852 136.15163574 -272.43345703 135.30327148 -272.14160156 134.42919922 C-265.70912422 115.58310678 -256.8659604 97.05532314 -245 81 C-244.23300781 79.95070313 -243.46601563 78.90140625 -242.67578125 77.8203125 C-237.64618481 71.05767906 -232.22362844 64.78834038 -226.4453125 58.65625 C-223.99200723 56.05541997 -223.99200723 56.05541997 -221.890625 53.34765625 C-220.23083167 51.28663189 -218.63425039 49.64218076 -216.625 47.9375 C-214.02518517 45.72693656 -211.43975577 43.5074201 -208.89453125 41.234375 C-196.09678982 29.89427713 -182.10823623 20.95863959 -167 13 C-166.36465332 12.66258789 -165.72930664 12.32517578 -165.07470703 11.97753906 C-115.03037377 -14.18693 -53.28388641 -17.87416332 0 0 Z " fill="#FEFEFE" transform="translate(324,51)"/>
<path d="M0 0 C0.74121094 0.04125 1.48242188 0.0825 2.24609375 0.125 C5.78516222 1.4618488 7.7854095 3.75541781 9.5625 7 C10.28821391 10.5696245 10.23771062 14.07073717 10.19741821 17.70361328 C10.20521817 18.78256426 10.21301812 19.86151524 10.22105443 20.9731617 C10.24100097 24.58922577 10.22519828 28.20424058 10.20947266 31.8203125 C10.21624753 34.41242081 10.22514992 37.0045243 10.23602295 39.59661865 C10.25824658 45.90654414 10.25345825 52.21617211 10.23895974 58.52610922 C10.22766398 63.65465834 10.22613804 68.78312413 10.23157883 73.91168213 C10.23234499 74.64183222 10.23311116 75.37198231 10.23390054 76.12425816 C10.23549918 77.60758259 10.23712025 79.090907 10.2387635 80.57423139 C10.25301842 94.48070366 10.23663236 108.38701108 10.20976166 122.29345632 C10.18742306 134.22371488 10.19130326 146.1537302 10.21435547 158.08398438 C10.24111807 171.94096061 10.25164515 185.7977924 10.23629415 199.65479088 C10.23470142 201.13263319 10.23312956 202.61047552 10.23157883 204.08831787 C10.23080745 204.81542878 10.23003607 205.54253969 10.22924132 206.29168427 C10.22492568 211.41358734 10.23220789 216.53539873 10.24397659 221.6572876 C10.25947081 228.55207363 10.24842659 235.44639242 10.21950531 242.34113312 C10.21288645 244.87355027 10.21480569 247.40600604 10.22581863 249.9384079 C10.23945285 253.39159245 10.22238129 256.84329686 10.19741821 260.29638672 C10.20857182 261.3020273 10.21972543 262.30766788 10.23121703 263.34378242 C10.1679372 267.84690151 10.04378079 271.01360772 7.16319847 274.6098938 C3.86461802 277.6413708 2.10541164 278.03258079 -2.21875 278.234375 C-5.83480218 277.85239766 -7.81155648 276.43380131 -10.4375 274 C-13.20589256 269.17208635 -12.72169477 263.92795773 -12.70492554 258.53053284 C-12.70945665 257.46468694 -12.71398776 256.39884105 -12.71865618 255.30069679 C-12.73133333 251.7232885 -12.72967766 248.14603181 -12.72802734 244.56860352 C-12.73401045 242.00620324 -12.74081548 239.44380478 -12.74838257 236.88140869 C-12.76423248 230.64027721 -12.77049182 224.39920141 -12.77160732 218.15805168 C-12.77255793 213.08527603 -12.77666883 208.01251284 -12.78300858 202.93974113 C-12.80061822 188.55657462 -12.8098477 174.17343794 -12.80834763 159.79026056 C-12.80826772 159.01505807 -12.8081878 158.23985558 -12.80810547 157.44116211 C-12.80802371 156.66501302 -12.80794195 155.88886394 -12.80785771 155.08919518 C-12.80704454 142.50642129 -12.82619053 129.92376703 -12.8543822 117.34102774 C-12.88310279 104.42027015 -12.896923 91.49957092 -12.89519465 78.57878059 C-12.89453053 71.32503229 -12.90003234 64.07140945 -12.92155075 56.8176899 C-12.94165304 49.99768488 -12.9410974 43.17798909 -12.92651749 36.35795593 C-12.92442117 33.8529414 -12.92917889 31.3479105 -12.9412384 28.84292412 C-12.95661962 25.42711834 -12.94742897 22.01223597 -12.93197632 18.59645081 C-12.94226344 17.60180095 -12.95255057 16.60715109 -12.96314943 15.58236033 C-12.90465878 9.74429822 -12.29294464 6.46585059 -8.4375 2 C-5.58571964 0.01222438 -3.43374974 -0.28564989 0 0 Z " fill="#000000" transform="translate(313.4375,117)"/>
<path d="M0 0 C4.02120671 2.08507015 6.44981794 3.73478196 8 8 C8.19143816 10.62516157 8.2741873 13.14322656 8.26069641 15.76766968 C8.26452196 16.55497959 8.26834751 17.3422895 8.27228898 18.15345728 C8.28261605 20.79426711 8.27862739 23.43485939 8.2746582 26.07568359 C8.27900487 27.9679942 8.28418786 29.86030304 8.29014587 31.75260925 C8.30355271 36.89519301 8.30411262 42.03770335 8.30158257 47.18030119 C8.3005139 51.47210427 8.30539362 55.76389243 8.310188 60.05569232 C8.32128923 70.18069421 8.32171726 80.30565902 8.31567383 90.43066406 C8.30963387 100.87802146 8.32194422 111.32524418 8.3432439 121.7725786 C8.36085454 130.73999115 8.36686206 139.70736082 8.36360615 148.67479002 C8.36179214 154.03158644 8.3644412 159.38828682 8.37832069 164.7450676 C8.39088548 169.78313244 8.38896766 174.82098727 8.37590981 179.85904884 C8.37354145 181.70774849 8.37628795 183.55646286 8.38453293 185.40514565 C8.39498036 187.92979568 8.38691601 190.45373846 8.3742218 192.97836304 C8.38159609 193.70911053 8.38897037 194.43985802 8.39656812 195.19274938 C8.33832354 200.70297689 6.99336362 204.69996505 3.375 208.875 C-0.37333785 210.65052846 -3.9356332 210.65320181 -8 210 C-12.11491244 207.63611413 -13.61112346 205.45610485 -15 201 C-15.18978853 198.33494386 -15.27869098 195.77565353 -15.26742554 193.11207581 C-15.27195665 192.32391147 -15.27648776 191.53574714 -15.28115618 190.72369903 C-15.29380384 188.08600322 -15.29217959 185.44851378 -15.29052734 182.81079102 C-15.29651229 180.91833226 -15.30331776 179.02587595 -15.31088257 177.13342285 C-15.32855133 171.99503714 -15.33323827 166.85671803 -15.33451414 161.71830487 C-15.3364135 157.42893582 -15.34377131 153.13958227 -15.35085833 148.85021919 C-15.36714255 138.73143696 -15.37202718 128.61269031 -15.37060547 118.49389648 C-15.36940341 108.05386899 -15.39051809 97.61404802 -15.4220928 87.1740728 C-15.44823562 78.21088518 -15.45897363 69.2477651 -15.45769465 60.28453964 C-15.45718451 54.93107495 -15.46289661 49.57779387 -15.48405075 44.22436714 C-15.50339998 39.19034841 -15.50358028 34.1566891 -15.48901749 29.12265778 C-15.4869243 27.27556522 -15.49166054 25.42845036 -15.5037384 23.5813961 C-15.51916485 21.0588099 -15.5099007 18.53746708 -15.49447632 16.01490784 C-15.50476344 15.28484246 -15.51505057 14.55477709 -15.52564943 13.80258852 C-15.45742394 8.74992341 -14.19017097 5.88168641 -11 2 C-7.29137017 -0.47241989 -4.30094385 -0.66668695 0 0 Z " fill="#050505" transform="translate(147,151)"/>
<path d="M0 0 C3.48824919 2.24798281 5.49125625 4.1535746 7 8 C7.25447559 10.7895956 7.25447559 10.7895956 7.26069641 14.06602478 C7.26778122 15.30959244 7.27486603 16.5531601 7.28216553 17.83441162 C7.27987178 19.20983923 7.27736209 20.58526649 7.2746582 21.96069336 C7.27900609 23.41128298 7.28418949 24.86187031 7.29014587 26.31245422 C7.30353883 30.25046989 7.30411423 34.1883896 7.30158257 38.1264236 C7.30051308 41.41425015 7.30539567 44.70205727 7.310188 47.98987967 C7.32128417 55.74644172 7.32171995 63.50295534 7.31567383 71.25952148 C7.30963275 79.2609465 7.32194815 87.26219573 7.3432439 95.26359075 C7.36085753 102.13419241 7.36686164 109.0047381 7.36360615 115.8753615 C7.36179279 119.97849434 7.36443469 124.08150178 7.37832069 128.18461418 C7.39089063 132.04324274 7.38896301 135.90159717 7.37590981 139.76022148 C7.37354265 141.17556348 7.37628374 142.59092472 7.38453293 144.00624466 C7.3949892 145.93980175 7.3851033 147.87343684 7.3742218 149.80699158 C7.37438954 150.88859023 7.37455729 151.97018888 7.37473011 153.08456326 C6.79789899 157.57236552 4.54195145 161.18572669 1 164 C-2.02701813 165.08526813 -4.8067066 165.36479676 -8 165 C-11.98238006 162.78019185 -14.55392099 160.33823702 -16 156 C-16.10178233 154.00960536 -16.14369501 152.01596421 -16.15390015 150.022995 C-16.16250061 148.77383301 -16.17110107 147.52467102 -16.17996216 146.23765564 C-16.18439724 144.85073894 -16.18869561 143.4638218 -16.19287109 142.0769043 C-16.20077355 140.61823329 -16.2090426 139.15956423 -16.21765137 137.70089722 C-16.2438519 132.90869001 -16.25917569 128.11647414 -16.2734375 123.32421875 C-16.27879774 121.67410591 -16.28417525 120.02399312 -16.28956985 118.37388039 C-16.31119449 111.51023331 -16.32993153 104.64658858 -16.34119225 97.78291607 C-16.35743481 87.9476848 -16.3906245 78.11284836 -16.44759309 68.27776593 C-16.48628991 61.36132064 -16.50582453 54.44498098 -16.51111281 47.52843028 C-16.51476627 43.39773304 -16.52678664 39.2674571 -16.55921555 35.13687706 C-16.58929253 31.25025013 -16.59560978 27.36429951 -16.58383179 23.47758102 C-16.58361103 22.05295986 -16.59191851 20.62830734 -16.60948563 19.20379448 C-16.75059155 7.10059765 -16.75059155 7.10059765 -13.58071899 3.19538879 C-8.72758731 -0.93311607 -6.40282088 -1.57262267 0 0 Z " fill="#050505" transform="translate(373,174)"/>
<path d="M0 0 C3.0625 2.4375 3.0625 2.4375 5 5 C5.33 5.33 5.66 5.66 6 6 C6.10539549 7.93522766 6.1396744 9.87434267 6.14717102 11.81242371 C6.15432632 13.07566467 6.16148163 14.33890564 6.16885376 15.64042664 C6.17169435 17.05349707 6.17440604 18.46656777 6.17700195 19.87963867 C6.18326379 21.35771852 6.18991034 22.83579678 6.19691467 24.31387329 C6.21435387 28.34094251 6.22488498 32.36799983 6.2331202 36.39509749 C6.23826558 38.91031016 6.24434161 41.4255191 6.25063133 43.94072914 C6.269694 51.80774768 6.28392122 59.67475679 6.2922433 67.541794 C6.30201206 76.62704544 6.32831749 85.712053 6.36874419 94.7972185 C6.39890314 101.81553549 6.41371207 108.8337826 6.41702431 115.85216314 C6.41937565 120.04541883 6.42834615 124.23841432 6.45348549 128.43160057 C6.47676663 132.37887036 6.48099948 136.32570867 6.47072411 140.27302933 C6.47022859 141.72021355 6.47655379 143.16741899 6.49028015 144.61453819 C6.50800034 146.59383235 6.49850721 148.57331385 6.48774719 150.55265808 C6.49013555 151.65935443 6.4925239 152.76605078 6.49498463 153.90628338 C5.87824831 157.76096351 4.39704228 159.95632158 2 163 C-1.71453232 164.85726616 -5.95579425 164.58501089 -10 164 C-12.82424288 161.80977082 -14.41508603 160.16982793 -16 157 C-16.10247899 155.02224309 -16.13951334 153.04098799 -16.14717102 151.06059265 C-16.15432632 149.79453186 -16.16148163 148.52847107 -16.16885376 147.2240448 C-16.17169415 145.81301904 -16.17440587 144.40199302 -16.17700195 142.9909668 C-16.18326555 141.51111694 -16.18991226 140.03126866 -16.19691467 138.55142212 C-16.21433353 134.52447924 -16.22487876 130.49754823 -16.2331202 126.470577 C-16.23826832 123.95553426 -16.24434413 121.44049522 -16.25063133 118.92545509 C-16.2696856 111.05897598 -16.28391642 103.19250626 -16.2922433 95.3260085 C-16.30201863 86.24075725 -16.32834473 77.15574945 -16.36874419 68.070584 C-16.3988873 61.05141322 -16.41371044 54.03231229 -16.41702431 47.01307803 C-16.41937681 42.81931028 -16.42836289 38.62580253 -16.45348549 34.43210411 C-16.47673996 30.48646562 -16.48101026 26.54125882 -16.47072411 22.59556961 C-16.47022799 21.14796451 -16.47657073 19.70033835 -16.49028015 18.25279808 C-16.50795889 16.27539699 -16.4985207 14.29780904 -16.48774719 12.32035828 C-16.49013555 11.21403895 -16.4925239 10.10771963 -16.49498463 8.96787548 C-15.88434789 5.30656221 -14.55391655 3.64288144 -12 1 C-8.28803409 -0.85598295 -4.04117386 -0.59092637 0 0 Z " fill="#000000" transform="translate(261,174)"/>
<path d="M0 0 C3.0717718 1.71077974 5.40485654 3.80971307 7 7 C7.09929165 8.6738027 7.13506837 10.35153799 7.14044189 12.02827454 C7.14900711 13.62445618 7.14900711 13.62445618 7.15774536 15.25288391 C7.15886322 16.42538193 7.15998108 17.59787994 7.16113281 18.8059082 C7.16609772 20.03687225 7.17106262 21.2678363 7.17617798 22.53610229 C7.18830032 25.91845898 7.19574848 29.30075372 7.20018864 32.68312478 C7.20311857 34.79614483 7.20722326 36.90915943 7.21169281 39.02217674 C7.22537047 45.63284128 7.23503546 52.24349339 7.2388947 58.8541711 C7.24337442 66.48593743 7.26091704 74.11752456 7.2898953 81.7492364 C7.31151375 87.64739897 7.32159909 93.54551113 7.32293582 99.44371289 C7.32398386 102.96674464 7.32989111 106.489608 7.34775543 110.01259804 C7.36730114 113.94376019 7.36294646 117.8746986 7.35644531 121.8059082 C7.3656601 122.97233353 7.37487488 124.13875885 7.3843689 125.3405304 C7.37879974 126.41311096 7.37323059 127.48569153 7.36749268 128.59077454 C7.36895924 129.52010961 7.3704258 130.44944468 7.3719368 131.40694141 C6.81351391 135.30013854 4.96419646 137.9245501 2.375 140.8125 C-1.35754627 142.67877314 -4.91577265 142.65639368 -9 142 C-13.12410829 139.63083141 -14.53636688 137.42996118 -16 133 C-16.25726891 130.4493494 -16.25726891 130.4493494 -16.26742554 127.69361877 C-16.28022049 126.11866135 -16.28022049 126.11866135 -16.29327393 124.5118866 C-16.29236755 123.37044693 -16.29146118 122.22900726 -16.29052734 121.05297852 C-16.29724457 119.84268982 -16.30396179 118.63240112 -16.31088257 117.38543701 C-16.32660917 114.07337547 -16.33323656 110.7615647 -16.33451414 107.44948316 C-16.3359378 105.37847592 -16.34021139 103.3074948 -16.34550858 101.23649406 C-16.36399708 94.00652274 -16.37218048 86.77662504 -16.37060547 79.54663086 C-16.36940366 72.81470285 -16.39051647 66.08309525 -16.4220928 59.35124832 C-16.44826683 53.56424982 -16.45897233 47.77735592 -16.45769465 41.99029869 C-16.45718544 38.5370992 -16.46284587 35.08418473 -16.48405075 31.63104439 C-16.50705875 27.77937479 -16.49790529 23.92814311 -16.48583984 20.07641602 C-16.49707886 18.93700058 -16.50831787 17.79758514 -16.51989746 16.62364197 C-16.47073281 10.45362567 -16.22571931 6.64314995 -12 2 C-7.97818385 -0.68121076 -4.72763609 -0.81344335 0 0 Z " fill="#050505" transform="translate(429,185)"/>
<path d="M0 0 C3.72086969 1.69130441 5.81665983 3.57556989 8 7 C8.38031673 9.13366604 8.38031673 9.13366604 8.38768005 11.47154236 C8.39758469 12.36171555 8.40748932 13.25188873 8.41769409 14.16903687 C8.41094162 15.6224498 8.41094162 15.6224498 8.40405273 17.10522461 C8.41091599 18.13165573 8.41777924 19.15808685 8.42485046 20.21562195 C8.44316389 23.61133628 8.43927435 27.00659059 8.43359375 30.40234375 C8.43815339 32.7611964 8.4434583 35.12004772 8.44947815 37.47889709 C8.45841822 42.42438145 8.45597586 47.3697044 8.44604492 52.31518555 C8.43455482 58.65518052 8.4547634 64.99461857 8.48396206 71.33454037 C8.50230153 76.20642134 8.50203604 81.07816832 8.49632454 85.95007515 C8.49617105 88.28767236 8.50223837 90.6252785 8.51461601 92.96284294 C8.52948095 96.23071172 8.51888108 99.49754466 8.50170898 102.76538086 C8.51137695 103.73229858 8.52104492 104.69921631 8.53100586 105.69543457 C8.48366228 109.9944886 8.40957421 112.34709174 6.08192444 116.05763245 C2.86207081 119.0616508 1.02785809 119.86675914 -3.375 120.4375 C-8.1853299 119.85694294 -9.61392593 118.38607407 -13 115 C-14.15860152 112.68279697 -14.14030746 111.31841269 -14.1673584 108.73773193 C-14.17884918 107.84333908 -14.19033997 106.94894623 -14.20217896 106.02745056 C-14.21328201 104.55158226 -14.21328201 104.55158226 -14.22460938 103.04589844 C-14.23599945 102.01161209 -14.24738953 100.97732574 -14.25912476 99.91169739 C-14.36970736 89.09596789 -14.41719261 78.27955463 -14.45996094 67.46337891 C-14.48225599 62.32794885 -14.52405363 57.1932432 -14.58300781 52.05810547 C-14.65398995 45.8635916 -14.69077753 39.66976083 -14.70307922 33.47486115 C-14.7134969 31.11289412 -14.73596114 28.75094845 -14.77067566 26.38921356 C-14.81677072 23.08255509 -14.8188943 19.77858712 -14.81054688 16.47167969 C-14.83414276 15.49586441 -14.85773865 14.52004913 -14.88204956 13.5146637 C-14.80316133 7.05928797 -14.80316133 7.05928797 -12.5146637 4.04099274 C-8.44709246 0.36816206 -5.64191818 -0.9403197 0 0 Z " fill="#000000" transform="translate(203,196)"/>
<path d="M0 0 C2.72855786 2.20210669 4.43184849 4.86369697 6 8 C6.11368286 10.50062207 6.16780591 12.97405531 6.17700195 15.47558594 C6.18357315 16.24652588 6.19014435 17.01746582 6.19691467 17.81176758 C6.21666375 20.36930433 6.2283147 22.92678229 6.23828125 25.484375 C6.24235678 26.35765694 6.2464323 27.23093887 6.25063133 28.1306839 C6.27150038 32.75411239 6.28579765 37.37751114 6.29516602 42.00097656 C6.30622354 46.773769 6.34061329 51.54609433 6.38033772 56.31872177 C6.40650247 59.99050759 6.41485779 63.66218219 6.41844749 67.33405304 C6.42331497 69.09309285 6.43493358 70.85212764 6.45348549 72.61107635 C6.47787125 75.07670394 6.47691318 77.54112431 6.4699707 80.00683594 C6.48278076 80.73018127 6.49559082 81.45352661 6.50878906 82.1987915 C6.45700897 87.25829566 5.16101815 90.09529187 2 94 C-0.74018076 96.1633006 -2.48652151 96.92352448 -5.9375 97.4375 C-9.89346816 96.87236169 -11.95372709 95.56163859 -15 93 C-17.24977835 88.80689042 -17.29630225 84.74324913 -17.29052734 80.09204102 C-17.29724457 79.31090942 -17.30396179 78.52977783 -17.31088257 77.72497559 C-17.32982964 75.15122054 -17.33378485 72.57772663 -17.3359375 70.00390625 C-17.34236689 68.20938511 -17.34909536 66.41486502 -17.35610962 64.62034607 C-17.36807354 60.86202565 -17.37179127 57.1037971 -17.37060547 53.34545898 C-17.37040214 48.53572711 -17.39772244 43.72658517 -17.43214989 38.91699314 C-17.45441263 35.21173916 -17.45844323 31.50662741 -17.45738602 27.8013134 C-17.45974222 26.02832948 -17.46856684 24.25534165 -17.48405075 22.48242378 C-17.50370185 20.00031566 -17.49787724 17.51948327 -17.48583984 15.03735352 C-17.49707886 14.30937057 -17.50831787 13.58138763 -17.51989746 12.8313446 C-17.45767568 7.76867289 -16.16626754 4.9085844 -13 1 C-8.91004774 -1.85081821 -4.62108904 -1.44151619 0 0 Z " fill="#050505" transform="translate(93,208)"/>
</svg>
