<?xml version="1.0" encoding="UTF-8"?>
<svg version="1.1" xmlns="http://www.w3.org/2000/svg" width="512" height="512">
<path d="M0 0 C6.487715 3.60751865 10.67341084 7.96593509 13.03097028 15.00289452 C14.15042537 19.02114412 14.26753652 22.94830978 14.24275684 27.09821892 C14.24756656 28.3016583 14.24756656 28.3016583 14.25247344 29.52940959 C14.2607719 32.21660944 14.25484968 34.90358631 14.24897766 37.59078979 C14.25199841 39.53732421 14.25588751 41.48385744 14.26057023 43.43038857 C14.27086879 48.77876086 14.26866366 54.12706625 14.26438963 59.47544408 C14.26192579 65.24378896 14.27093232 71.01211759 14.27842712 76.78045654 C14.29118562 88.08098975 14.29296638 99.38149921 14.29062686 110.68203841 C14.28884484 119.86610371 14.29059085 129.05016179 14.2948513 138.23422623 C14.29574409 140.19386158 14.29574409 140.19386158 14.29665491 142.19308553 C14.29786664 144.84696721 14.29908077 147.50084889 14.30029728 150.15473057 C14.30824064 167.9773905 14.31200252 185.80004789 14.30798054 203.62270927 C14.30782416 204.31963024 14.30766779 205.0165512 14.30750667 205.73459099 C14.30670089 209.2668348 14.30585512 212.79907861 14.30499337 216.33132242 C14.30482228 217.03283278 14.30465119 217.73434315 14.30447492 218.45711141 C14.30412827 219.87573558 14.30377974 221.29435975 14.30342933 222.71298392 C14.29807199 244.78735013 14.30600302 266.8616764 14.32446289 288.93603516 C14.34518032 313.7390174 14.35587501 338.54197467 14.3518874 363.34496605 C14.34997354 376.47683692 14.35248096 389.6086714 14.36660194 402.74053574 C14.37850132 413.91965864 14.37993683 425.09872275 14.36781178 436.27784644 C14.361913 441.98219888 14.36085131 447.68644369 14.37281418 453.39078903 C14.38363861 458.61294322 14.38061057 463.83489949 14.36655249 469.05704428 C14.36389608 470.94594623 14.36630161 472.83486352 14.37428836 474.72375046 C14.45246586 494.5924603 14.45246586 494.5924603 8.86328125 503.140625 C2.85399006 508.88864266 -2.01683291 511.21223944 -10.44921875 511.578125 C-18.54884427 511.28566109 -23.98693745 508.98216807 -29.66015625 503.21484375 C-34.65664393 496.93313237 -35.31289091 489.3496148 -35.26619434 481.59121799 C-35.26940082 480.79114798 -35.2726073 479.99107796 -35.27591094 479.1667634 C-35.28419428 476.49314626 -35.27829251 473.81975411 -35.27241516 471.14613342 C-35.2754366 469.20698555 -35.27932604 467.26783886 -35.28400773 465.32869428 C-35.29429734 460.00538437 -35.29210344 454.68214174 -35.28782713 449.35882628 C-35.28536169 443.61572073 -35.29437178 437.87263146 -35.30186462 432.12953186 C-35.31461837 420.88060478 -35.3164045 409.63170156 -35.31406436 398.38276846 C-35.31228192 389.24067978 -35.31402926 380.09859835 -35.3182888 370.95651054 C-35.31888399 369.65577319 -35.31947918 368.35503583 -35.32009241 367.01488219 C-35.32130414 364.37251604 -35.32251828 361.73014989 -35.32373478 359.08778375 C-35.33152257 341.34475934 -35.3354407 323.60173804 -35.33141804 305.8587122 C-35.33118347 304.81817835 -35.33118347 304.81817835 -35.33094417 303.75662363 C-35.3301384 300.24080373 -35.32929263 296.72498385 -35.32843087 293.20916397 C-35.32825978 292.51092182 -35.32808869 291.81267967 -35.32791242 291.09327867 C-35.32756577 289.68126435 -35.32721724 288.26925003 -35.32686683 286.8572357 C-35.32150893 264.88340494 -35.32944256 242.9096143 -35.34790039 220.93579102 C-35.36861785 196.24303773 -35.37931257 171.55031025 -35.3753249 146.8575477 C-35.37341114 133.78493648 -35.3759176 120.71236181 -35.39003944 107.63975716 C-35.40193875 96.51189533 -35.40337435 85.38409256 -35.39124928 74.25622994 C-35.38535063 68.57819885 -35.38428847 62.90027586 -35.39625168 57.22225189 C-35.40707644 52.02419278 -35.40404769 46.82633251 -35.38998999 41.62828284 C-35.38733369 39.74815904 -35.38973878 37.86801982 -35.39772586 35.98791111 C-35.4905028 12.51928655 -35.4905028 12.51928655 -27.01171875 3.890625 C-19.5572578 -2.51048821 -9.09087389 -3.34864875 0 0 Z " fill="#1FA3F5" transform="translate(189.01171875,1.109375)"/>
<path d="M0 0 C4.35844365 3.58360922 7.03407234 7.97721703 8.8125 13.3125 C8.90696415 15.00861997 8.94341137 16.70823239 8.94672108 18.40697765 C8.95117892 19.46696946 8.95563676 20.52696127 8.96022969 21.61907405 C8.96004533 22.78772685 8.95986097 23.95637965 8.95967102 25.16044617 C8.96334771 26.39876483 8.9670244 27.6370835 8.9708125 28.91292697 C8.9799425 32.3567958 8.98454972 35.80061696 8.98720181 39.24449337 C8.99110407 42.9562923 9.00068247 46.66807743 9.00941467 50.37986755 C9.02918142 59.34721331 9.03924561 68.31456021 9.04814246 77.28192231 C9.05252506 81.50426683 9.05789195 85.7266101 9.06313133 89.94895363 C9.0801439 103.98411009 9.09463821 118.01926577 9.10188007 132.05443096 C9.10378998 135.69701323 9.10571031 139.33959549 9.10766602 142.98217773 C9.10814976 143.88752964 9.1086335 144.79288154 9.1091319 145.72566835 C9.11743267 160.39266068 9.14277026 175.05957147 9.17524669 189.72652819 C9.20831384 204.78294867 9.22632853 219.83932769 9.22952431 234.89578468 C9.23168974 243.35017281 9.24044317 251.80444203 9.26598549 260.25879478 C9.2876878 267.45878449 9.29574525 274.6586264 9.28601871 281.8586451 C9.28147259 285.53158089 9.28337797 289.20421171 9.30278015 292.87710571 C9.32364537 296.86140902 9.31343093 300.84529181 9.30024719 304.82963562 C9.31121644 305.98713481 9.32218568 307.144634 9.33348733 308.33720893 C9.26811318 316.5121697 7.86673366 321.68043835 2.5 328.0625 C-3.45440795 333.04758572 -9.04247949 335.71128068 -16.90234375 335.59375 C-23.84614711 334.73912805 -29.78383693 331.75231909 -34.1875 326.3125 C-37.67553297 321.46800976 -39.31012099 318.17190117 -39.32172108 312.21802235 C-39.32617892 311.15803054 -39.33063676 310.09803873 -39.33522969 309.00592595 C-39.33504533 307.83727315 -39.33486097 306.66862035 -39.33467102 305.46455383 C-39.34018605 303.60707583 -39.34018605 303.60707583 -39.3458125 301.71207303 C-39.3549425 298.2682042 -39.35954972 294.82438304 -39.36220181 291.38050663 C-39.36610407 287.6687077 -39.37568247 283.95692257 -39.38441467 280.24513245 C-39.40418142 271.27778669 -39.41424561 262.31043979 -39.42314246 253.34307769 C-39.42752506 249.12073317 -39.43289195 244.8983899 -39.43813133 240.67604637 C-39.4551439 226.64088991 -39.46963821 212.60573423 -39.47688007 198.57056904 C-39.47878998 194.92798677 -39.48071031 191.28540451 -39.48266602 187.64282227 C-39.48339163 186.28479441 -39.48339163 186.28479441 -39.4841319 184.89933165 C-39.49243267 170.23233932 -39.51777026 155.56542853 -39.55024669 140.89847181 C-39.58331384 125.84205133 -39.60132853 110.78567231 -39.60452431 95.72921532 C-39.60668974 87.27482719 -39.61544317 78.82055797 -39.64098549 70.36620522 C-39.6626878 63.16621551 -39.67074525 55.9663736 -39.66101871 48.7663549 C-39.65647259 45.09341911 -39.65837797 41.42078829 -39.67778015 37.74789429 C-39.69864537 33.76359098 -39.68843093 29.77970819 -39.67524719 25.79536438 C-39.68621644 24.63786519 -39.69718568 23.480366 -39.70848733 22.28779107 C-39.64311318 14.1128303 -38.24173366 8.94456165 -32.875 2.5625 C-22.10922025 -6.45071095 -11.99159079 -6.34848924 0 0 Z " fill="#1FA3F4" transform="translate(271.1875,90.6875)"/>
<path d="M0 0 C5.6081575 4.92583167 9.62104443 9.84340105 10.18531871 17.52170527 C10.26457089 20.72470498 10.27604371 23.92206603 10.26742554 27.12605286 C10.27195665 28.35806213 10.27648776 29.5900714 10.28115618 30.85941428 C10.29161825 34.2718279 10.29312744 37.68403056 10.29076743 41.0964452 C10.2903589 44.7795882 10.30140184 48.46269988 10.31088257 52.14582825 C10.32748563 59.35905026 10.3329918 66.57223958 10.33410732 73.78547911 C10.33505812 79.64958507 10.33916996 85.51368026 10.34550858 91.37778282 C10.36311899 108.00868201 10.37234774 124.6395554 10.37084763 141.27046398 C10.37076772 142.16677971 10.3706878 143.06309545 10.37060547 143.98657227 C10.37052371 144.88398412 10.37044195 145.78139598 10.37035771 146.70600214 C10.36954483 161.24926964 10.38868335 175.79243356 10.4168822 190.3356711 C10.44561738 205.27354582 10.45942215 220.21137004 10.45769465 235.1492731 C10.45703097 243.53377735 10.46251345 251.91817302 10.48405075 260.30265236 C10.50227089 267.44143102 10.50660308 274.58005187 10.4930319 281.71884374 C10.48650643 285.35951495 10.48636946 288.99988348 10.5037384 292.64052582 C10.5223936 296.59148904 10.50990351 300.54201141 10.49447632 304.49299622 C10.50476344 305.63775431 10.51505057 306.7825124 10.52564943 307.96196014 C10.45798098 315.80623288 9.14518377 322.10155794 4.140625 328.3046875 C-1.99661103 333.40214387 -7.6906299 336.65727507 -15.92578125 336.28515625 C-22.45338272 335.38776471 -28.69425632 333.20116483 -33 328 C-37.90060969 320.58054879 -38.7198966 314.06185312 -38.63491821 305.32373047 C-38.64271817 304.08084196 -38.65051812 302.83795345 -38.65855443 301.55740166 C-38.67496805 298.13273272 -38.66917087 294.7094482 -38.65362334 291.28486538 C-38.64226244 287.58197365 -38.65979589 283.87919873 -38.67352295 280.17633057 C-38.69570964 272.93249536 -38.69097467 265.68891977 -38.67645974 258.44507456 C-38.66514944 252.55578901 -38.66364433 246.66657602 -38.66907883 240.77728271 C-38.66984499 239.93781503 -38.67061116 239.09834734 -38.67140054 238.23344123 C-38.67299923 236.52786587 -38.6746203 234.82229052 -38.6762635 233.11671519 C-38.69050761 217.13848907 -38.67414931 201.16040657 -38.64726166 185.18220401 C-38.62492408 171.48402764 -38.62880459 157.78606317 -38.65185547 144.08789062 C-38.67863716 128.16529161 -38.68913444 112.24281836 -38.67379415 96.32019997 C-38.67220147 94.62103909 -38.67062962 92.9218782 -38.66907883 91.22271729 C-38.66830745 90.38678476 -38.66753607 89.55085224 -38.66674132 88.68958843 C-38.66243142 82.81009764 -38.66969553 76.93068689 -38.68147659 71.0512085 C-38.69552649 63.88212583 -38.69164957 56.71331675 -38.66507287 49.54426527 C-38.6519679 45.88922292 -38.64672484 42.23463605 -38.66331863 38.57959747 C-38.68106043 34.61156615 -38.65982009 30.64427419 -38.63491821 26.67626953 C-38.64607182 25.52937086 -38.65722543 24.38247219 -38.66871703 23.20081902 C-38.57004379 15.08298039 -37.00044105 7.92795246 -31.02396452 2.05977058 C-21.70184079 -5.597231 -10.22847471 -6.06911078 0 0 Z " fill="#3278ED" transform="translate(425,90)"/>
<path d="M0 0 C6.45525454 3.58946889 10.61674529 7.93112889 13.03184319 14.90329075 C14.30820265 19.49033097 14.25949965 23.9588479 14.22879028 28.69187927 C14.23049913 29.6615786 14.23220798 30.63127793 14.23396862 31.63036209 C14.23725516 34.87010568 14.22627348 38.10964082 14.21533203 41.34936523 C14.21476774 43.67549128 14.21508483 46.00161769 14.21621704 48.32774353 C14.21679084 54.63707639 14.20503198 60.94633319 14.19106913 67.25564837 C14.17983341 73.18295444 14.17782233 79.11025759 14.17576538 85.03757287 C14.17139247 96.77465601 14.15809434 108.51171128 14.13916016 120.2487793 C14.1207909 131.6475409 14.10663951 143.04629493 14.09814453 154.44506836 C14.09735636 155.4997062 14.09735636 155.4997062 14.09655227 156.57564985 C14.09394212 160.10299618 14.09141472 163.63034256 14.08892846 167.15768898 C14.06820854 196.40202223 14.03134556 225.64631509 13.98828125 254.890625 C-2.18171875 254.890625 -18.35171875 254.890625 -35.01171875 254.890625 C-35.07788748 225.10621418 -35.13326753 195.32184393 -35.16491474 165.53737945 C-35.16866674 162.01897875 -35.17254972 158.5005782 -35.17651367 154.98217773 C-35.1773006 154.28174406 -35.17808753 153.58131038 -35.17889831 152.85965144 C-35.19194299 141.52665309 -35.21559165 130.19370051 -35.24317714 118.86072928 C-35.27125747 107.22721004 -35.28767609 95.59371746 -35.29398423 83.96016592 C-35.29789459 77.42781074 -35.30708285 70.8955593 -35.32890892 64.36323738 C-35.34929128 58.21309744 -35.35554893 52.06310385 -35.35104179 45.91293335 C-35.3518662 43.65751284 -35.3578213 41.40208736 -35.36933517 39.14669609 C-35.38430641 36.06242685 -35.38065522 32.97870694 -35.3724823 29.89442444 C-35.38122082 29.00626716 -35.38995935 28.11810989 -35.39896268 27.20303875 C-35.33739919 18.58129471 -33.20210537 10.19043764 -27.01171875 3.890625 C-19.5572578 -2.51048821 -9.09087389 -3.34864875 0 0 Z " fill="#0CCDFB" transform="translate(189.01171875,1.109375)"/>
<path d="M0 0 C5.85535544 3.53839759 10.49562328 8.98428339 12.5625 15.5 C12.85344716 18.44178614 12.84097353 21.36928301 12.82992554 24.32356262 C12.83445665 25.21240463 12.83898776 26.10124665 12.84365618 27.01702327 C12.85631689 29.99553255 12.85467872 32.97385936 12.85302734 35.95239258 C12.85901156 38.08790828 12.86581686 40.22342181 12.87338257 42.3589325 C12.89106093 48.16065298 12.89573874 53.96231449 12.89701414 59.76405931 C12.89891304 64.60746722 12.90627051 69.45086139 12.91335833 74.29426402 C12.92964698 85.72198062 12.93452686 97.1496657 12.93310547 108.57739258 C12.93190399 120.3647548 12.95300606 132.15193393 12.9845928 143.93924981 C13.01074692 154.05999514 13.02147312 164.18068063 13.02019465 174.30145949 C13.01968475 180.34579667 13.02538347 186.38997116 13.04655075 192.43427467 C13.06591833 198.11998233 13.0660675 203.80537188 13.05151749 209.49109077 C13.04942645 211.57600112 13.05414779 213.66093131 13.0662384 215.74580765 C13.08169497 218.59607377 13.07237979 221.44524362 13.05697632 224.29548645 C13.06726344 225.11699985 13.07755057 225.93851325 13.08814943 226.78492099 C13.00827054 233.49151186 11.03687577 238.67635846 6.59765625 243.7421875 C5.94667969 244.28101563 5.29570313 244.81984375 4.625 245.375 C3.97660156 245.92929687 3.32820313 246.48359375 2.66015625 247.0546875 C-3.83738526 251.5315783 -10.81245905 251.18219506 -18.4375 250.5 C-24.62195052 248.87353821 -29.03584399 244.82825764 -32.4375 239.5 C-35.24309652 233.97434691 -35.87220549 229.67598534 -35.83190918 223.52531433 C-35.83800028 222.64434171 -35.84409139 221.76336908 -35.85036707 220.85570031 C-35.86696216 217.91563053 -35.86222621 214.9759955 -35.85742188 212.03588867 C-35.86476427 209.92302502 -35.873351 207.81016538 -35.88308716 205.6973114 C-35.90529505 199.96579675 -35.90823415 194.23442591 -35.90633965 188.50287414 C-35.9062199 183.71422499 -35.91478585 178.92560625 -35.92311716 174.13696557 C-35.94234905 162.83665105 -35.94523599 151.53641039 -35.93847656 140.23608398 C-35.93183739 128.58840644 -35.9546959 116.94104571 -35.99179029 105.29343241 C-36.02250573 95.28470671 -36.03384526 85.2760828 -36.02995348 75.26731092 C-36.02788772 69.29333123 -36.03333869 63.31959803 -36.05784607 57.34566307 C-36.08014053 51.72551646 -36.07821245 46.10588409 -36.05791855 40.48573494 C-36.05451321 38.42746454 -36.05957697 36.36915934 -36.07390213 34.31093597 C-36.21463387 12.58519483 -36.21463387 12.58519483 -28.62349701 4.58926678 C-21.130191 -2.47412789 -9.52359334 -4.22025901 0 0 Z " fill="#3278ED" transform="translate(112.4375,131.5)"/>
<path d="M0 0 C15.84 0 31.68 0 48 0 C48.09035256 19.68017774 48.16401239 39.36018712 48.20724869 59.04051971 C48.22785914 68.17878148 48.25595068 77.31690506 48.30175781 86.45507812 C48.34167209 94.42148066 48.36744384 102.3877831 48.37635398 110.35428286 C48.38156098 114.57110773 48.39376749 118.78764631 48.42292023 123.00437927 C48.45016203 126.97706539 48.45842743 130.94934849 48.45243073 134.92211914 C48.45352706 136.37653293 48.46142891 137.83096083 48.4768219 139.28529358 C48.57383228 148.9275011 48.04032862 155.19528489 41.6875 162.75 C35.73309205 167.73508572 30.14502051 170.39878068 22.28515625 170.28125 C15.34135289 169.42662805 9.40366307 166.43981909 5 161 C1.19455116 155.71465439 -0.12559281 152.344075 -0.12025452 145.86872864 C-0.12162918 144.58565323 -0.12300385 143.30257782 -0.12442017 141.98062134 C-0.12088101 140.55584694 -0.1172462 139.13107277 -0.11352539 137.70629883 C-0.11324337 136.20833844 -0.11340155 134.71037791 -0.1139679 133.2124176 C-0.11425527 129.14246505 -0.10836815 125.07254186 -0.10139394 121.00259614 C-0.09515051 116.75048613 -0.09455582 112.49837548 -0.09336853 108.2462616 C-0.09025814 100.19276404 -0.08204868 92.13928002 -0.07201904 84.08578843 C-0.06084885 74.91781776 -0.05534516 65.74984645 -0.05032361 56.58187068 C-0.03986583 37.72123787 -0.02152397 18.86062364 0 0 Z " fill="#3278ED" transform="translate(232,256)"/>
<path d="M0 0 C5.8317405 5.12221207 9.61597562 10.16799551 10.24609566 18.09650993 C10.24333028 19.75850268 10.24333028 19.75850268 10.24050903 21.45407104 C10.24325836 22.73285629 10.24600769 24.01164154 10.24884033 25.32917786 C10.24176342 26.73361301 10.23449382 28.13804721 10.22705078 29.54248047 C10.22648624 31.03103121 10.22680407 32.51958251 10.22793579 34.00813293 C10.22850863 38.03868989 10.21676549 42.06912735 10.20278788 46.09965658 C10.19026903 50.31570928 10.18910911 54.53176484 10.18673706 58.74783325 C10.18052569 66.72687723 10.1641195 74.70586628 10.14403808 82.6848861 C10.12166843 91.77069712 10.11068297 100.8565108 10.10064721 109.94234252 C10.07975297 128.6282658 10.043081 147.31411379 10 166 C-5.84 166 -21.68 166 -38 166 C-38.11300189 146.35436102 -38.20505076 126.70898643 -38.25906086 107.06310463 C-38.28480867 97.94055139 -38.31989347 88.81821488 -38.37719727 79.69580078 C-38.42713736 71.74183037 -38.45931589 63.78801698 -38.47044247 55.83389413 C-38.47694336 51.62475856 -38.49215009 47.41607205 -38.52865028 43.20708084 C-38.5627779 39.23925331 -38.57301957 35.2720566 -38.56553841 31.30409622 C-38.56690552 29.85373497 -38.57673829 28.40335099 -38.59602737 26.95311737 C-38.70542245 18.29834259 -38.21488159 11.17783842 -33 4 C-23.62398111 -5.16019797 -11.26452211 -6.6838541 0 0 Z " fill="#1FA3F5" transform="translate(425,90)"/>
<path d="M0 0 C6.87956677 4.6080117 10.1735875 10.48117393 12.0703125 18.38671875 C12.48214837 22.47821139 12.48091892 26.53881308 12.45849609 30.6484375 C12.46375305 31.84473785 12.46901001 33.04103821 12.47442627 34.27359009 C12.48530919 37.52988144 12.48284074 40.7858023 12.47328901 44.04208755 C12.46564317 47.46515881 12.4727516 50.88820698 12.47744751 54.3112793 C12.48289083 60.05749899 12.47575104 65.80360265 12.46142578 71.54980469 C12.44510192 78.17379017 12.45039145 84.79749854 12.466905 91.42147732 C12.48056066 97.1296318 12.48241969 102.83770332 12.47458899 108.54586887 C12.46993479 111.94593911 12.46922498 115.3458795 12.47919846 118.74594116 C12.48684375 122.53914949 12.47516459 126.33183077 12.45849609 130.125 C12.46760513 131.79449203 12.46760513 131.79449203 12.47689819 133.49771118 C12.39950881 143.03678174 10.78612551 150.62547959 4.078125 157.65625 C-1.65708545 162.59924266 -7.73863952 164.09637453 -15.2265625 163.76171875 C-22.69756114 162.72527963 -27.48560366 159.44320946 -32.421875 153.875 C-36.98814653 146.339469 -37.36494219 138.75212553 -37.31787109 130.125 C-37.32312805 128.92869965 -37.32838501 127.73239929 -37.33380127 126.49984741 C-37.34468419 123.24355606 -37.34221574 119.9876352 -37.33266401 116.73134995 C-37.32501817 113.30827869 -37.3321266 109.88523052 -37.33682251 106.4621582 C-37.34226583 100.71593851 -37.33512604 94.96983485 -37.32080078 89.22363281 C-37.30447692 82.59964733 -37.30976645 75.97593896 -37.32628 69.35196018 C-37.33993566 63.6438057 -37.34179469 57.93573418 -37.33396399 52.22756863 C-37.32930979 48.82749839 -37.32859998 45.427558 -37.33857346 42.02749634 C-37.34621875 38.23428801 -37.33453959 34.44160673 -37.31787109 30.6484375 C-37.32394379 29.53544281 -37.33001648 28.42244812 -37.33627319 27.27572632 C-37.25888381 17.73665576 -35.64550051 10.14795791 -28.9375 3.1171875 C-20.7082467 -3.97534015 -9.62846135 -4.91776252 0 0 Z " fill="#0CCDFB" transform="translate(345.9296875,175.61328125)"/>
<path d="M0 0 C5.8184453 3.51609275 10.57761061 8.99067351 12.5625 15.5 C12.84976856 19.02488712 12.81493569 22.53874498 12.78955078 26.07348633 C12.78984283 27.13735565 12.79013489 28.20122498 12.79043579 29.29733276 C12.78904398 32.80898228 12.77348951 36.32041886 12.7578125 39.83203125 C12.75408185 42.26869084 12.75123512 44.70535193 12.74923706 47.14201355 C12.74160474 53.55191192 12.72195958 59.9617195 12.6998291 66.37158203 C12.67576294 74.06417718 12.66658779 81.75680271 12.65492249 89.44942474 C12.63553508 101.13301295 12.59720948 112.81640199 12.5625 124.5 C-3.2775 124.5 -19.1175 124.5 -35.4375 124.5 C-35.63804405 97.94796822 -35.63804405 97.94796822 -35.68164062 86.59765625 C-35.71148707 78.86391977 -35.74673057 71.13048032 -35.81469727 63.39697266 C-35.8691712 57.15942512 -35.89895339 50.92219629 -35.91188622 44.68442917 C-35.92109836 42.30905519 -35.93908755 39.93369791 -35.96615028 37.55846024 C-36.00264359 34.22170064 -36.00743668 30.88624463 -36.00512695 27.54931641 C-36.02310333 26.5753894 -36.04107971 25.6014624 -36.05960083 24.59802246 C-36.0023645 16.91627857 -33.9482582 10.27169057 -28.62331104 4.55097389 C-21.0456145 -2.42063158 -9.56463996 -4.2384483 0 0 Z " fill="#1FA3F5" transform="translate(112.4375,131.5)"/>
<path d="M0 0 C16.17 0 32.34 0 49 0 C49.06307243 7.92143057 49.12315836 15.84194108 49.15525055 23.76340485 C49.17103148 27.45297594 49.1920873 31.14233714 49.22631836 34.83178711 C49.25913541 38.39148575 49.27689956 41.95098203 49.28463173 45.51082039 C49.2927971 47.51643174 49.31618017 49.52196273 49.33988953 51.52745056 C49.3417564 61.74865873 48.22905376 69.70082441 41.0078125 77.26953125 C35.27260205 82.21252391 29.19104798 83.70965578 21.703125 83.375 C14.23212636 82.33856088 9.44408384 79.05649071 4.5078125 73.48828125 C-0.47441094 65.26632184 -0.40403798 56.95353339 -0.29296875 47.55859375 C-0.28736186 46.18140631 -0.28309694 44.80421282 -0.28010559 43.42701721 C-0.2687426 39.83156323 -0.23935125 36.23648251 -0.20599365 32.64117432 C-0.17510646 28.96070493 -0.16139542 25.28017245 -0.14648438 21.59960938 C-0.11606957 14.39941174 -0.05733009 7.20023425 0 0 Z " fill="#1FA3F5" transform="translate(309,256)"/>
<path d="M0 0 C1.2684375 0.804375 1.2684375 0.804375 2.5625 1.625 C8.16047383 7.07943604 10.55462336 13.02485276 10.72038269 20.77659607 C10.71339859 21.7049678 10.70641449 22.63333954 10.69921875 23.58984375 C10.70637405 24.57441055 10.71352936 25.55897736 10.72090149 26.57337952 C10.72864122 28.64323022 10.72374603 30.71316329 10.70678711 32.78295898 C10.68756692 35.92655477 10.72699842 39.06571974 10.77148438 42.20898438 C10.85388007 61.92686196 10.85388007 61.92686196 4 69 C-1.13422329 73.82044557 -6.62894297 75.89136262 -13.671875 76.06640625 C-22.00748444 75.68646825 -26.98365813 73.01634187 -32.8125 67.1875 C-37.34737329 60.57954177 -38.46219689 54.63736026 -38.43359375 46.8203125 C-38.4388356 45.96750702 -38.44407745 45.11470154 -38.44947815 44.23605347 C-38.45586402 42.44269899 -38.4546062 40.64930244 -38.44604492 38.85595703 C-38.43754341 36.13887522 -38.46632952 33.42390565 -38.49804688 30.70703125 C-38.53987761 20.66367293 -38.49401723 11.91824539 -32.17578125 3.59765625 C-22.68739548 -4.21981882 -11.00882761 -7.07710347 0 0 Z " fill="#1FA3F5" transform="translate(502,220)"/>
<path d="M0 0 C5.56301607 4.6886468 9.05056126 10.3854106 10.00192261 17.63201904 C10.12419958 19.96801005 10.15699662 22.28584843 10.1484375 24.625 C10.15367935 25.47780548 10.1589212 26.33061096 10.1643219 27.20925903 C10.17070777 29.00261351 10.16944995 30.79601006 10.16088867 32.58935547 C10.15238716 35.30643728 10.18117327 38.02140685 10.21289062 40.73828125 C10.25472136 50.78163957 10.20886098 59.52706711 3.890625 67.84765625 C-2.66552148 73.24926121 -8.37348205 75.85630439 -16.97265625 75.3203125 C-21.27897312 74.76175257 -24.5883037 73.82186057 -28.28515625 71.4453125 C-29.13078125 70.9090625 -29.97640625 70.3728125 -30.84765625 69.8203125 C-36.44563008 64.36587646 -38.83977961 58.42045974 -39.00553894 50.66871643 C-38.99855484 49.7403447 -38.99157074 48.81197296 -38.984375 47.85546875 C-38.9915303 46.87090195 -38.99868561 45.88633514 -39.00605774 44.87193298 C-39.01379747 42.80208228 -39.00890228 40.73214921 -38.99194336 38.66235352 C-38.97272317 35.51875773 -39.01215467 32.37959276 -39.05664062 29.23632812 C-39.13903632 9.51845054 -39.13903632 9.51845054 -32.28515625 2.4453125 C-23.40812194 -5.88920244 -10.02853384 -7.17788721 0 0 Z " fill="#0CCDFC" transform="translate(38.28515625,220.5546875)"/>
<path d="M0 0 C1.2684375 0.804375 1.2684375 0.804375 2.5625 1.625 C5 4 5 4 10 13 C10 20.59 10 28.18 10 36 C-5.84 36 -21.68 36 -38 36 C-38 10.71331828 -38 10.71331828 -32.26953125 3.9609375 C-23.39811779 -4.64486478 -10.72951334 -6.89754429 0 0 Z " fill="#0CCDFC" transform="translate(502,220)"/>
<path d="M0 0 C15.84 0 31.68 0 48 0 C48 25.28668172 48 25.28668172 42.26953125 32.0390625 C37.06586249 37.0869328 31.49212932 39.91240973 24.1953125 40.0546875 C18.85402516 39.72176173 14.57346727 38.9400861 10 36 C9.154375 35.46375 8.30875 34.9275 7.4375 34.375 C5 32 5 32 0 23 C0 15.41 0 7.82 0 0 Z " fill="#1FA3F5" transform="translate(0,256)"/>
</svg>
